<mxfile host="app.diagrams.net" modified="2023-03-07T02:16:41.560Z" agent="5.0 (Windows NT 10.0; Win64; x64) AppleWebKit/537.36 (KHTML, like Gecko) Chrome/110.0.0.0 Safari/537.36" etag="V0VPmeKao-lgTSHIO9fu" version="21.0.2" type="github">
  <diagram name="PÃ¡gina-1" id="7aWSo2lcvLwH4XhSEzi1">
    <mxGraphModel dx="1434" dy="788" grid="1" gridSize="10" guides="1" tooltips="1" connect="1" arrows="1" fold="1" page="1" pageScale="1" pageWidth="827" pageHeight="1169" background="#FFFFFF" math="0" shadow="0">
      <root>
        <mxCell id="0" />
        <mxCell id="1" parent="0" />
        <mxCell id="5Ew7y0Eqry4s42YX4RN5-8" style="edgeStyle=orthogonalEdgeStyle;rounded=0;orthogonalLoop=1;jettySize=auto;html=1;exitX=0.94;exitY=0.5;exitDx=0;exitDy=0;exitPerimeter=0;entryX=0;entryY=0.5;entryDx=0;entryDy=0;entryPerimeter=0;" parent="1" source="5Ew7y0Eqry4s42YX4RN5-1" target="5Ew7y0Eqry4s42YX4RN5-7" edge="1">
          <mxGeometry relative="1" as="geometry" />
        </mxCell>
        <mxCell id="5Ew7y0Eqry4s42YX4RN5-1" value="" style="outlineConnect=0;dashed=0;verticalLabelPosition=bottom;verticalAlign=top;align=center;html=1;shape=mxgraph.aws3.bucket_with_objects;fillColor=#E05243;gradientColor=none;" parent="1" vertex="1">
          <mxGeometry x="65" y="170" width="60" height="61.5" as="geometry" />
        </mxCell>
        <mxCell id="5Ew7y0Eqry4s42YX4RN5-2" value="de-tech-assessment-2022" style="text;align=center;verticalAlign=middle;resizable=0;points=[];autosize=1;strokeColor=none;fillColor=none;fontStyle=1" parent="1" vertex="1">
          <mxGeometry x="10" y="250" width="170" height="30" as="geometry" />
        </mxCell>
        <mxCell id="5Ew7y0Eqry4s42YX4RN5-3" value="AWS S3 Bucket" style="text;html=1;align=center;verticalAlign=middle;resizable=0;points=[];autosize=1;strokeColor=none;fillColor=none;" parent="1" vertex="1">
          <mxGeometry x="40" y="231.5" width="110" height="30" as="geometry" />
        </mxCell>
        <mxCell id="5Ew7y0Eqry4s42YX4RN5-4" value="" style="outlineConnect=0;dashed=0;verticalLabelPosition=bottom;verticalAlign=top;align=center;html=1;shape=mxgraph.aws3.bucket_with_objects;fillColor=#E05243;gradientColor=none;" parent="1" vertex="1">
          <mxGeometry x="384" y="110" width="60" height="61.5" as="geometry" />
        </mxCell>
        <mxCell id="5Ew7y0Eqry4s42YX4RN5-5" value="loka-s3-data-lake" style="text;align=center;verticalAlign=middle;resizable=0;points=[];autosize=1;strokeColor=none;fillColor=none;fontStyle=1" parent="1" vertex="1">
          <mxGeometry x="354" y="190" width="120" height="30" as="geometry" />
        </mxCell>
        <mxCell id="5Ew7y0Eqry4s42YX4RN5-6" value="AWS S3 Bucket" style="text;html=1;align=center;verticalAlign=middle;resizable=0;points=[];autosize=1;strokeColor=none;fillColor=none;" parent="1" vertex="1">
          <mxGeometry x="359" y="171.5" width="110" height="30" as="geometry" />
        </mxCell>
        <mxCell id="5Ew7y0Eqry4s42YX4RN5-10" style="edgeStyle=orthogonalEdgeStyle;rounded=0;orthogonalLoop=1;jettySize=auto;html=1;exitX=1;exitY=0.5;exitDx=0;exitDy=0;exitPerimeter=0;entryX=0;entryY=0.12;entryDx=0;entryDy=0;entryPerimeter=0;" parent="1" source="5Ew7y0Eqry4s42YX4RN5-7" target="5Ew7y0Eqry4s42YX4RN5-4" edge="1">
          <mxGeometry relative="1" as="geometry">
            <Array as="points">
              <mxPoint x="340" y="217" />
              <mxPoint x="340" y="117" />
            </Array>
          </mxGeometry>
        </mxCell>
        <mxCell id="5Ew7y0Eqry4s42YX4RN5-17" style="edgeStyle=orthogonalEdgeStyle;rounded=0;orthogonalLoop=1;jettySize=auto;html=1;exitX=1;exitY=0.5;exitDx=0;exitDy=0;exitPerimeter=0;entryX=-0.011;entryY=0.491;entryDx=0;entryDy=0;entryPerimeter=0;" parent="1" source="5Ew7y0Eqry4s42YX4RN5-7" target="5Ew7y0Eqry4s42YX4RN5-13" edge="1">
          <mxGeometry relative="1" as="geometry">
            <Array as="points">
              <mxPoint x="340" y="217" />
              <mxPoint x="340" y="293" />
            </Array>
          </mxGeometry>
        </mxCell>
        <mxCell id="5Ew7y0Eqry4s42YX4RN5-7" value="" style="sketch=0;points=[[0,0,0],[0.25,0,0],[0.5,0,0],[0.75,0,0],[1,0,0],[0,1,0],[0.25,1,0],[0.5,1,0],[0.75,1,0],[1,1,0],[0,0.25,0],[0,0.5,0],[0,0.75,0],[1,0.25,0],[1,0.5,0],[1,0.75,0]];outlineConnect=0;fontColor=#232F3E;gradientColor=#F78E04;gradientDirection=north;fillColor=#D05C17;strokeColor=#ffffff;dashed=0;verticalLabelPosition=bottom;verticalAlign=top;align=center;html=1;fontSize=12;fontStyle=0;aspect=fixed;shape=mxgraph.aws4.resourceIcon;resIcon=mxgraph.aws4.lambda;" parent="1" vertex="1">
          <mxGeometry x="230" y="193.5" width="48" height="48" as="geometry" />
        </mxCell>
        <mxCell id="5Ew7y0Eqry4s42YX4RN5-13" value="" style="aspect=fixed;html=1;points=[];align=center;image;fontSize=12;image=img/lib/azure2/databases/Azure_Database_MySQL_Server.svg;" parent="1" vertex="1">
          <mxGeometry x="390" y="261.5" width="48" height="64" as="geometry" />
        </mxCell>
        <mxCell id="5Ew7y0Eqry4s42YX4RN5-14" value="loka-db-tech-assestment" style="text;align=center;verticalAlign=middle;resizable=0;points=[];autosize=1;strokeColor=none;fillColor=none;fontStyle=1" parent="1" vertex="1">
          <mxGeometry x="334" y="344.75" width="160" height="30" as="geometry" />
        </mxCell>
        <mxCell id="5Ew7y0Eqry4s42YX4RN5-15" value="AWS RDS MySQL" style="text;html=1;align=center;verticalAlign=middle;resizable=0;points=[];autosize=1;strokeColor=none;fillColor=none;" parent="1" vertex="1">
          <mxGeometry x="354" y="326.25" width="120" height="30" as="geometry" />
        </mxCell>
        <mxCell id="5Ew7y0Eqry4s42YX4RN5-18" value="AWS Lambda Function" style="text;html=1;align=center;verticalAlign=middle;resizable=0;points=[];autosize=1;strokeColor=none;fillColor=none;" parent="1" vertex="1">
          <mxGeometry x="184" y="160" width="150" height="30" as="geometry" />
        </mxCell>
      </root>
    </mxGraphModel>
  </diagram>
</mxfile>
